#!OML:ASF E:\Steps\Project 1\Capture day 1\Session 2\Subject.ASF
:FULLY-SPECIFIED
:DEGREES
789
root 9.60424 20.3646 -14.5398 -158.841 3.4233 177.908
lowerback -18.6252 0.226715 -5.81697
upperback 2.92252 1.8492 -0.907683
thorax 13.6934 0.45516 2.84627
lowerneck 3.51899 -0.570188 0.886133
upperneck 12.6825 -2.08648 3.16453
head 3.51382 -1.27886 0.817549
rclavicle 1.98288e-014 2.52457e-014
rhumerus -33.0625 -8.15865 -82.7842
rradius 48.5537
rwrist -7.41212
rhand -6.70368 -53.7656
rfingers 7.12502
rthumb 19.1558 -82.8422
lclavicle 1.98288e-014 2.52457e-014
lhumerus -35.6032 8.09983 75.322
lradius 18.5166
lwrist -8.78251
lhand -19 -14.165
lfingers 7.12502
lthumb 7.30514 15.6889
rfemur -15.6623 6.19921 22.4822
rtibia 16.2953
rfoot -24.487 -8.4858
rtoes -40.3062
lfemur -71.1427 -3.14746 -17.2823
ltibia 55.8599
lfoot -3.95581 1.11238
ltoes -32.9839
790
root 9.59077 20.3777 -14.6214 -158.641 3.24022 178.007
lowerback -18.6614 0.218591 -5.68652
upperback 2.88986 1.8147 -0.943999
thorax 13.6839 0.452973 2.7219
lowerneck 3.45449 -0.579366 0.864633
upperneck 12.7152 -2.13719 3.43757
head 3.54335 -1.29733 0.9097
rclavicle 8.49804e-015 1.5704e-014
rhumerus -33.086 -8.43553 -82.8636
rradius 48.5353
rwrist -7.32481
rhand -7.73459 -52.2496
rfingers 7.12502
rthumb 18.1642 -81.4214
lclavicle 8.49804e-015 1.5704e-014
lhumerus -35.3587 8.55889 75.0002
lradius 18.3848
lwrist -9.50022
lhand -18.9225 -14.0262
lfingers 7.12502
lthumb 7.37998 15.8251
rfemur -15.5897 6.2626 22.5226
rtibia 16.359
rfoot -24.1955 -8.52674
rtoes -40.0413
lfemur -71.3234 -3.49991 -17.0872
ltibia 56.3057
lfoot -4.36949 1.16029
ltoes -31.5132
791
root 9.57802 20.3977 -14.6954 -158.629 3.22207 177.822
lowerback -18.4356 0.205611 -5.88926
upperback 2.96054 1.84865 -1.04256
thorax 13.629 0.460261 2.73131
lowerneck 3.16798 -0.978272 0.831952
upperneck 12.7478 -2.71069 3.70823
head 3.6248 -1.56745 0.990826
rclavicle 3.18055e-015 3.77691e-015
rhumerus -33.1466 -8.5556 -82.9091
rradius 48.7377
rwrist -7.22049
rhand -7.42347 -52.2643
rfingers 7.12502
rthumb 18.4635 -81.408
lclavicle 3.18055e-015 3.77691e-015
lhumerus -34.8185 9.00623 74.8171
lradius 18.1245
lwrist -10.1313
lhand -18.8674 -13.4283
lfingers 7.12502
lthumb 7.43311 16.4211
rfemur -15.4261 6.51531 22.1867
rtibia 16.5282
rfoot -23.8757 -8.57321
rtoes -39.0922
lfemur -71.2174 -3.84134 -17.2122
ltibia 56.6042
lfoot -4.78014 1.15534
ltoes -31.3541
792
root 9.56397 20.419 -14.7803 -158.594 3.12846 177.74
lowerback -18.3327 0.206447 -5.94913
upperback 3.00511 1.86407 -1.07879
thorax 13.6187 0.464705 2.72691
lowerneck 3.24135 -0.981858 0.498447
upperneck 12.0197 -2.65824 4.22422
head 3.37029 -1.52346 1.22092
rclavicle 3.97569e-016 -2.8625e-014
rhumerus -33.2112 -8.66681 -82.8819
rradius 48.8118
rwrist -7.29342
rhand -6.60606 -53.3093
rfingers 7.12502
rthumb 19.2497 -82.3766
lclavicle 3.97569e-016 -2.8625e-014
lhumerus -34.3878 8.83549 74.961
lradius 17.9512
lwrist -10.0258
lhand -18.8767 -13.4037
lfingers 7.12502
lthumb 7.42414 16.446
rfemur -15.0617 6.58493 22.014
rtibia 16.3994
rfoot -23.3983 -8.54956
rtoes -38.5267
lfemur -70.9261 -4.18567 -17.2405
ltibia 56.6232
lfoot -5.14821 1.06436
ltoes -31.164
793
root 9.54738 20.4376 -14.8789 -158.34 2.9693 177.804
lowerback -18.595 0.204248 -5.86542
upperback 2.94225 1.85225 -1.03736
thorax 13.7025 0.46128 2.72839
lowerneck 3.31881 -1.29463 0.531236
upperneck 12.2716 -3.11126 4.06902
head 3.45085 -1.76033 1.15533
rclavicle -7.45443e-015 7.15625e-015
rhumerus -33.3032 -8.84991 -82.7655
rradius 48.7115
rwrist -7.42979
rhand -6.90462 -52.9826
rfingers 7.12502
rthumb 18.9626 -82.0783
lclavicle -7.45443e-015 7.15625e-015
lhumerus -34.4177 8.67295 75.1053
lradius 18.2349
lwrist -10.0527
lhand -18.6596 -13.2135
lfingers 7.12502
lthumb 7.63369 16.6287
rfemur -14.7613 6.40413 22.0209
rtibia 16.0606
rfoot -22.8648 -8.42768
rtoes -39.588
lfemur -70.7535 -4.51971 -17.1523
ltibia 56.5402
lfoot -5.62407 0.963974
ltoes -30.6071
794
root 9.53025 20.4611 -14.9688 -158.166 3.01115 177.768
lowerback -18.7069 0.259311 -5.91199
upperback 2.9203 1.95401 -1.08812
thorax 13.7353 0.507299 2.73047
lowerneck 3.30522 -1.0961 0.324936
upperneck 12.1413 -2.83899 4.27972
head 3.40957 -1.62291 1.26652
rclavicle -2.48481e-015 -2.16675e-014
rhumerus -33.3474 -9.0019 -82.7192
rradius 48.6501
rwrist -7.46149
rhand -7.37381 -52.2278
rfingers 7.12502
rthumb 18.5113 -81.367
lclavicle -2.48481e-015 -2.16675e-014
lhumerus -34.3615 8.6172 75.1555
lradius 18.5944
lwrist -10.2329
lhand -18.6601 -12.9867
lfingers 7.12502
lthumb 7.6332 16.8555
rfemur -14.5948 6.324 21.8355
rtibia 15.9619
rfoot -22.2876 -8.29257
rtoes -41.7172
lfemur -70.4609 -4.69224 -17.2379
ltibia 56.4177
lfoot -6.09171 0.880645
ltoes -29.6056
795
root 9.51619 20.4952 -15.0444 -158.099 3.13086 177.663
lowerback -18.5591 0.312299 -6.09571
upperback 2.94118 2.07703 -1.19459
thorax 13.6607 0.559453 2.7477
lowerneck 3.07567 -1.24465 0.344441
upperneck 12.1419 -3.04568 4.40216
head 3.46041 -1.71278 1.2979
rclavicle -4.47266e-015 3.27995e-014
rhumerus -33.3319 -9.0575 -82.7801
rradius 48.6176
rwrist -7.37417
rhand -7.43333 -52.0577
rfingers 7.12502
rthumb 18.454 -81.2024
lclavicle -4.47266e-015 3.27995e-014
lhumerus -33.9147 8.40486 75.2616
lradius 18.6028
lwrist -9.93679
lhand -19.1019 -13.3517
lfingers 7.12502
lthumb 7.20682 16.5056
rfemur -14.5489 6.51925 21.5616
rtibia 16.1087
rfoot -21.6755 -8.36402
rtoes -43.0473
lfemur -69.996 -4.72839 -17.4348
ltibia 56.2085
lfoot -6.48829 0.7544
ltoes -28.0238
796
root 9.4991 20.5308 -15.1303 -157.843 3.13402 177.627
lowerback -18.7721 0.334236 -6.18208
upperback 2.94604 2.15753 -1.26139
thorax 13.787 0.589866 2.75105
lowerneck 2.76414 -1.50436 0.651928
upperneck 12.271 -3.37734 4.15207
head 3.55988 -1.86183 1.15155
rclavicle 6.06293e-015 -3.598e-014
rhumerus -33.3424 -9.27367 -82.7968
rradius 48.5537
rwrist -7.23638
rhand -7.60378 -51.6062
rfingers 7.12502
rthumb 18.2901 -80.7663
lclavicle 6.06293e-015 -3.598e-014
lhumerus -33.4726 8.12624 75.4191
lradius 18.6354
lwrist -9.67658
lhand -19.4607 -13.6904
lfingers 7.12502
lthumb 6.8604 16.1785
rfemur -14.5469 6.578 21.4031
rtibia 16.0893
rfoot -20.9235 -8.28969
rtoes -43.2411
lfemur -69.6532 -4.82692 -17.6051
ltibia 55.8984
lfoot -6.7737 0.677768
ltoes -27.4772
